# xmcd
#
# Track frame offsets: 
#        150
#        17142
#        41955
#        56687
#        78262
#        101302
#        119847
#        144097
#        161662
#        172900
#        186115
#        199200
#        215787
#        230612
#        243307
#
# Disc length: 3526 seconds
#
# Revision: 4
# Processed by: cddbd v1.5.2PL0 Copyright (c) Steve Scherf et al.
# Submitted via: ExactAudioCopy v1.0b3
#
DISCID=d20dc40f
DTITLE=Various Artist - All About Blues
DYEAR=1999
DGENRE=Blues
TTITLE0=Robert Cray - Who's Been Talking
TTITLE1=Screamin' Jay Hawkins - Don't Fool With Me
TTITLE2=Johnny Winter - Let The Music Play
TTITLE3=Walter Trout and The Free Radicals - Sweet Butterfly
TTITLE4=Canned Heat - Blues Band Stranger
TTITLE5=Rory Block - Lovin' Whiskey
TTITLE6=The Urn - Feelings
TTITLE7=Oscar Benton - Bentonhurt Blues
TTITLE8=John Lee Hooker - Boom Boom
TTITLE9=Memphis Slim - Everyday I Have The Blues
TTITLE10=Elmore James - Dust My Broom
TTITLE11=Lightnin' Slim - Crazy About You Baby
TTITLE12=Sonny Terry and Brownee Mcghee - Walk On
TTITLE13=Muddy Waters - Baby Please Don't Go
TTITLE14=Lightnin' Hopkins - Don't Wake Me
EXTD=
EXTT0=
EXTT1=
EXTT2=
EXTT3=
EXTT4=
EXTT5=
EXTT6=
EXTT7=
EXTT8=
EXTT9=
EXTT10=
EXTT11=
EXTT12=
EXTT13=
EXTT14=
PLAYORDER=
